<?xml version="1.0" encoding="UTF-8"?>
<svg id="Layer_1" data-name="Layer 1" xmlns="http://www.w3.org/2000/svg" viewBox="0 0 699.1 305.9">
  <defs>
    <style>
      .cls-1 {
        stroke-width: 4px;
      }

      .cls-1, .cls-2, .cls-3 {
        fill: none;
        stroke: #fff;
        stroke-miterlimit: 10;
      }

      .cls-2 {
        stroke-width: 4.2px;
      }

      .cls-3 {
        stroke-width: 3px;
      }

      .cls-4 {
        fill: #fff;
      }
    </style>
  </defs>
  <g>
    <path class="cls-4" d="M56.06,0C20.49.23,0,34.42,0,82.2c0,51.62,19.35,80.38,52.93,80.38,35.86,0,55.78-36.91,55.78-84.46C108.71,26.72,89.93-.23,56.06,0ZM53.79,160.63c-24.76,0-32.66-53.82-32.66-82.52C21.13,52.5,27.89,1.94,55.21,1.94c24.47,0,32.66,46.77,32.66,80.25,0,25.89-7.04,78.44-34.08,78.44Z"/>
    <path class="cls-4" d="M481.76,0c-35.57.23-56.06,34.42-56.06,82.2,0,51.62,19.35,80.38,52.93,80.38,35.86,0,55.78-36.91,55.78-84.46C534.41,26.72,515.63-.23,481.76,0ZM479.49,160.63c-24.76,0-32.66-53.82-32.66-82.52,0-25.62,6.76-76.17,34.08-76.17,24.47,0,32.66,46.77,32.66,80.25,0,25.89-7.04,78.44-34.08,78.44Z"/>
    <path class="cls-4" d="M182,4.98c7.39,0,6.93,4.3,6.93,12.45l1.42,99.34L128.61,1.81h-13.7v3.17c6.86.31,6.3,4.75,6.3,12.45v127.26c0,7.7.83,12.24-6.3,12.45v3.17h34.12v-3.17c-6.2-.21-7.02-4.3-7.02-12.45V41.15l64.58,119.16h4.55l-1.42-142.88c0-7.7-.36-12.45,6.1-12.45V1.81h-33.82v3.17Z"/>
    <path class="cls-4" d="M647.66,64.99V6.12h51.44V1.81h-75.72v3.17c5.56,0,4.86,4.3,4.86,12.45v56.95h-63.05V6.12h51.44V1.81h-77.71v3.17c7.31,0,6.85,4.3,6.85,12.45v56.95h-.02v5.07h.02v65.24c0,8.15.16,12.45-6.92,12.45v3.17h35.4v-3.17c-9.62,0-9.05-4.75-9.05-12.45v-65.24h63.05v65.24c0,8.15.8,12.45-6.65,12.45v3.17h34.31v-3.17c-8.17-.37-8.24-4.75-8.24-12.45v-65.24h51.44v-5.07h-51.44v-9.4Z"/>
    <path class="cls-4" d="M286.31,67.67c-11.47-12.27-11.47-21.71-11.28-26.42.17-4.1,2.19-16.38,10.45-25.63,8.38-9.38,16.49-10.11,25.93-10.11,14.7,0,31.29,9.54,33.16,27.71h0c-.48,2.69-1.79,4.1-4.73,4.1v3.17h27.38v-3.17c-3.42,0-4.9-1.83-5.42-4.57h0c-2.2-10.59-7.19-18.4-14.98-23.39-7.87-5.04-19.67-7.56-35.4-7.56-19.28,0-33.49,3.74-42.63,11.21-9.15,7.48-13.72,17.51-13.72,30.11,0,8.4,2.75,15.84,8.26,22.3,5.5,6.47,12.78,11.13,21.83,13.98-10.82,2.69-19.37,7.48-25.67,14.36-6.3,6.89-9.44,15.54-9.44,25.95,0,7.39,2.11,14.32,6.34,20.79,4.23,6.47,10.92,11.76,20.06,15.87,9.14,4.11,20.7,6.17,34.66,6.17,16.52,0,29.26-2.14,38.21-6.43,8.95-4.29,15-9.95,18.14-17.01,3.14-7.05,4.72-15.71,4.72-25.95v-33.74h28.03v-5.07h-86.74c-9.05,0-23.02-2.28-27.17-6.72ZM354.21,79.45v39.03c0,10.25-1.68,18.25-6.15,24.28-4.7,6.35-12.1,15.87-34.89,15.87-20.38,0-30.33-8.79-35.84-14.84-5.51-6.05-7.72-16.6-7.72-20.81,0-4.54,0-22.8,14.33-35.09,5.84-5.01,19.89-8.44,32.47-8.44h37.79Z"/>
  </g>
  <g id="Layer_2" data-name="Layer 2">
    <path class="cls-4" d="M518.85,274.09c1.61-.32,3.22-.58,4.85-.8l-.63.09c4.15-.55,8.29-.49,12.45-.09.96.09,1.93.17,2.89.3l-.63-.09c2.45.33,4.93,1.01,7.22,1.97l-.57-.24c2.73,1.16,5.3,2.68,7.65,4.49l-.48-.37c.55.42,1.09.86,1.61,1.32.48.42,1.03.7,1.68.7.58,0,1.28-.26,1.68-.7s.73-1.05.7-1.68-.22-1.27-.7-1.68c-3.87-3.36-8.38-6.03-13.32-7.46-1.27-.37-2.56-.69-3.87-.89s-2.58-.31-3.87-.43c-2.77-.26-5.56-.41-8.34-.29-3.22.14-6.43.64-9.59,1.26-.56.11-1.14.62-1.42,1.09-.3.51-.43,1.26-.24,1.83s.54,1.13,1.09,1.42c.59.31,1.18.37,1.83.24h0Z"/>
    <path class="cls-4" d="M520.54,271.79c0-7.66,0-15.32-.01-22.98s0-15.24-.01-22.85c0-4.29,0-8.58,0-12.86,0-1.25-1.09-2.44-2.38-2.38s-2.38,1.05-2.38,2.38c0,7.66,0,15.32.01,22.98s0,15.24.01,22.85c0,4.29,0,8.58,0,12.86,0,1.25,1.09,2.44,2.38,2.38s2.38-1.05,2.38-2.38h0Z"/>
    <path class="cls-4" d="M557.27,278.98c0-7.78,0-15.56,0-23.34v-23.21c0-4.37,0-8.74,0-13.1,0-1.25-1.1-2.44-2.38-2.38s-2.38,1.05-2.38,2.38c0,7.78,0,15.56,0,23.34s0,15.47,0,23.21c0,4.37,0,8.74,0,13.1,0,1.25,1.1,2.44,2.38,2.38s2.38-1.05,2.38-2.38h0Z"/>
    <path class="cls-4" d="M518.86,215.35c2.79-.83,5.64-1.44,8.53-1.83l-.63.09c2.95-.4,5.93-.55,8.89-.35.99.07,1.99.17,2.98.3l-.63-.09c2.35.32,4.65.94,6.84,1.86l-.57-.24c3.08,1.31,5.99,3.01,8.64,5.06l-.48-.37c.07.05.13.1.2.15.52.41.99.7,1.68.7.58,0,1.28-.26,1.68-.7s.73-1.05.7-1.68c-.03-.59-.21-1.31-.7-1.68-2.27-1.77-4.65-3.35-7.24-4.62s-5.05-2.23-7.77-2.78c-4.61-.92-9.37-.96-14.02-.36-3.17.41-6.3,1.03-9.37,1.94-.58.17-1.11.57-1.42,1.09s-.43,1.26-.24,1.83c.39,1.21,1.65,2.04,2.93,1.66h0Z"/>
    <path class="cls-4" d="M556.88,220.66c2.99-2.26,6.1-4.37,9.32-6.3,2.44-1.46,4.95-2.83,7.51-4.08,1.5-.73,3.01-1.44,4.55-2.09l-.57.24c1.94-.82,3.91-1.53,5.9-2.2,1.85-.62,3.71-1.18,5.62-1.61,1.3-.29,2.62-.52,3.94-.7l-.63.09c2.62-.35,5.25-.44,7.89-.39s5.25.18,7.87.41c1.2.1,2.39.23,3.59.38.56.07,1.3-.32,1.68-.7.41-.41.72-1.09.7-1.68s-.23-1.25-.7-1.68l-.48-.37c-.37-.22-.77-.32-1.2-.33-4.06-.5-8.16-.75-12.24-.8-4.62-.05-9.25.48-13.71,1.69-3.99,1.08-7.9,2.56-11.67,4.25-2.62,1.18-5.18,2.47-7.69,3.87-3.67,2.05-7.21,4.32-10.61,6.8-.49.36-.98.72-1.47,1.09-.52.39-.92.78-1.09,1.42-.16.57-.09,1.33.24,1.83s.82.96,1.42,1.09,1.34.14,1.83-.24h0Z"/>
    <path class="cls-4" d="M556.57,280.67c2.72-2.96,5.66-5.72,8.7-8.34.86-.74,1.74-1.46,2.64-2.16l-.48.37c3.19-2.46,6.64-4.49,10.35-6.06l-.57.24c2.47-1.04,5.03-1.87,7.65-2.44,1.01-.22,2.04-.4,3.06-.53l-.63.09c2.36-.31,4.71-.33,7.09-.32,3.26.02,6.52,0,9.77.19,1.66.1,3.32.26,4.97.48l-.63-.09c.92.12,1.84.27,2.75.43.65.11,1.25.1,1.83-.24.49-.29.97-.86,1.09-1.42.14-.61.11-1.29-.24-1.83-.32-.49-.82-.99-1.42-1.09-2.29-.4-4.61-.71-6.92-.9-2-.16-4.01-.22-6.02-.24-2.25-.03-4.5-.06-6.75-.05-1.47,0-2.92.04-4.38.19-4.23.44-8.35,1.47-12.28,3.11-2.09.87-4.15,1.83-6.11,2.98-2.13,1.25-4.13,2.69-6.06,4.22-1.66,1.31-3.24,2.72-4.79,4.15-1.73,1.59-3.43,3.2-5.05,4.91-.31.33-.62.66-.93,1-.42.46-.7,1.05-.7,1.68,0,.58.26,1.28.7,1.68.92.84,2.47.98,3.37,0h0Z"/>
    <path class="cls-4" d="M614.26,260.24c0-7.53,0-15.07,0-22.6,0-7.53,0-15.07,0-22.6,0-4.25,0-8.49,0-12.74,0-1.25-1.1-2.44-2.38-2.38s-2.38,1.05-2.38,2.38c0,7.53,0,15.07,0,22.6,0,7.53,0,15.07,0,22.6,0,4.25,0,8.49,0,12.74,0,1.25,1.1,2.44,2.38,2.38s2.38-1.05,2.38-2.38h0Z"/>
    <path class="cls-4" d="M556.09,281.04c1.11-.55,2.23-1.07,3.37-1.55l-.57.24c3.62-1.53,7.38-2.68,11.23-3.46,1.43-.29,2.86-.53,4.3-.73l-.63.09c3.14-.42,6.29-.5,9.45-.52,3.68-.02,7.38-.09,11.06.09,1.71.08,3.4.25,5.1.48l-.63-.09c3.62.49,7.2,1.27,10.7,2.33,1.19.36,2.65-.43,2.93-1.66s-.39-2.54-1.66-2.93c-4.17-1.26-8.45-2.11-12.78-2.59-3.36-.38-6.73-.4-10.1-.4-3.8,0-7.61-.07-11.4.25s-7.64.99-11.35,1.98-6.97,2.26-10.28,3.82c-.38.18-.76.36-1.13.55-.51.26-.95.88-1.09,1.42-.16.57-.09,1.33.24,1.83.74,1.14,2.06,1.45,3.26.85h0Z"/>
    <path class="cls-1" d="M134.97,213.27c-1.28,1.3-2.72,2.79-4.3,4.46,0,0,0,0,0,0-.24.29-.57.68-.95,1.15-.74.91-1.39,1.7-2.11,2.72-.49.69-.81,1.19-1.22,1.82-.56.87-1.16,1.86-1.78,2.96-.58,1.97-.95,2.15-1.12,2.13-.46-.03-.87-1.55-.71-2.9.15-1.3.79-2.22,1.39-3.06.18-.25.67-.91,2.67-2.71.86-.77,1.78-1.55,3.15-2.65,1.12-.9,1.98-1.53,3.27-2.55,3.32-2.62,4.26-3.4,6.09-4.5,1.94-1.17,3.29-1.78,4.69-2.16,1.58-.42,2.93-.59,4.2-.51,1.05.06,1.97.13,2.9.73.21.14,1.04.71,1.73,2.17.51,1.08,1.01,2.78.55,6.25-.15,1.13-.4,2.46-1.39,5.61-1.1,3.5-2.18,6.28-2.93,8.16-1.01,2.51-1.78,4.45-3,6.98-1.72,3.57-2.07,3.62-4.9,9.05-1.18,2.26-2.14,4.21-3.1,6.16-1.31,2.66-1.48,3.07-2.95,6.06-.86,1.74-.97,1.94-1.55,3.08-.84,1.65-.99,1.98-1.71,3.39-.48.94-.69,1.32-1.09,2.09-.91,1.74-1.6,3.44-2.74,5.5-1.3,2.34-2.49,3.9-2.19,5.24.04.17.15.67.5.8.38.14.85-.22,1.24-.58,1.91-2.27,2.26-2.96,3.43-5.28.57-1.14.71-1.42,1.09-2.15.78-1.51,1.39-2.52,1.93-3.43,2.16-3.65,1.96-3.76,3.79-6.79.79-1.31,1.73-2.86,3.13-4.79.73-1.01,1.14-1.51,2.2-3.02.59-.83.9-1.33,2-2.92.43-.62.37-.54,1.11-1.6,1.8-2.59,1.89-2.79,2.7-3.91.76-1.07,1.32-1.8,2.16-2.88,2.49-3.22,4.79-5.86,5.54-6.72,5.03-5.75,7.54-8.64,10.53-11.62,0,0,4.3-4.36,11.8-10.35.67-.53,3.12-2.46,6.78-3.58,1.7-.52,4.91-1.51,6.34.03.58.63.71,1.5.69,2.21.04.73.05,1.76-.11,2.99-.18,1.37-.61,3.14-2.07,6.22-.97,2.04-1.8,3.35-2.63,4.71-2,3.26-5.33,9.36-5.62,9.9-1.78,3.36-1.85,3.81-3.62,6.98-.93,1.68-1.24,2.14-2.07,3.73-.81,1.55-1.45,2.9-2.71,5.55-.91,1.92-1.37,2.88-1.65,3.52-1.26,2.82-1.97,4.39-2.59,6.58-.78,2.76-1.03,4.92-1.13,6.15-.19,2.38-.31,3.6.15,5.11.27.9.93,2.96,2.95,4.28,1.06.7,2.11.93,2.75,1.02.95.25,2.07.48,3.32.61,1.62.17,3.05.15,4.24.04"/>
    <path class="cls-3" d="M195.35,258.24c.66.07,1.61.13,2.73,0,1.67-.2,2.9-.68,4.17-1.24,1.44-.64,2.59-1.28,3.45-1.8,1.28-.76,2.71-1.62,4.36-3.04,2.12-1.82,3.35-3.49,4.41-4.93.99-1.35,1.72-2.56,2.11-4.14.33-1.3.21-2,0-2.52-.06-.14-.5-1.2-1.59-1.72-.28-.13-1.29-.55-3.61.35-.9.35-1.78.82-4.58,3-2.05,1.59-3.07,2.39-4.05,3.39-.61.63-1.39,1.62-2.95,3.61-2.34,2.98-1.39,1.94-2.83,3.75-.55.7-2.2,2.75-2.35,4.4-.06.66.15.88.23.96.23.23.55.21,1.23.23,1.2.03.52.08,1.61.08.85,0,1.56,0,2.35-.08,1.82-.17,3.27-.64,3.94-.87,2.56-.85,4.31-2.03,5.28-2.69,1.48-1.01,2.46-1.93,3.49-2.88.94-.87,2.04-1.91,3.26-3.44,1.49-1.88,2.47-3.14,2.86-5.07.18-.88.49-2.42-.35-3.7-.54-.82-1.43-1.32-1.67-1.45-.71-.4-1.32-.53-1.72-.62-.7-.15-1.35-.18-2.64-.1-1.61.1-2.41.15-3.31.36-.97.23-2.45.7-4.1,1.81-.79.62-1.8,1.42-2.98,2.36-1.69,1.34-2.02,1.62-2.39,1.96-.64.57-1.63,1.51-2.73,2.78-.31.35-1.18,1.37-2.25,2.91-1.6,2.3-2.76,3.96-3.48,6.34-.57,1.88-.66,3.51-.68,3.82-.02.33,0,.11-.01,1.25-.02,3.64.11,4.36.39,5.11.65,1.76,1.79,2.9,2.2,3.3.81.79,1.56,1.25,2.2,1.63.77.46,1.76,1.05,3.17,1.41,1.02.26,1.76.28,3.22.31.85.02,1.98.02,3.35-.22,2.57-.45,4.41-1.52,6.26-2.6.62-.36,1.45-.85,2.47-1.63,1.33-1.02,1.57-1.72,3.07-2.84.21-.15.37-.26.5-.35.33-.22.58-.37.61-.39.71-.43,2.84-2.64,2.76-2.72-.07-.07-1.59,1.99-4.12,4.01-2.18,1.74-8.73,6.96-16.25,5.68-1.49-.25-2.64-.7-3.28-.97-.62-.34-1.9-1.06-2.65-2.53-.61-1.18-.56-2.31-.51-4.21.06-2.05.34-3.93.34-3.93.22-1.48.41-2.07.04-2.39-.53-.46-1.92-.05-2.2.68-.13.34.07.58.32,1.5.18.66.38,1.48.44,1.89.38,2.43-1.59,4.3-.71,5.35,0,0,0,0,0,0,.99,1.01,3.54,3.33,7.5,4.06,3.05.57,5.63-.12,7.01-.49,1.76-.46,3.06-1.08,4.28-1.66,2.77-1.32,4.68-2.73,5.14-3.08.47-.35.42-.34,4.66-3.92,1.42-1.2,1.33-1.12,1.49-1.26,1.31-1.13,3.16-2.85,5.32-5.32"/>
    <path class="cls-3" d="M243.64,259.78c-.56.71-1.32,1.63-2.25,2.65-.58.64-1.99,2.15-4.03,3.95-1.31,1.16-1.97,1.74-2.93,2.33-1.22.76-2.28,1.42-3.7,1.59-1.39.16-3.47-.09-4.7-1.27-3.39-3.26.36-12.07,1.73-15.27,1.08-2.54,3.09-5.75,3.3-6.07.75-1.14.62-.8,1.95-2.71.97-1.41,2.06-3.05,3.78-4.79.93-.94,1.5-1.36,1.87-1.19.43.2.4,1.12.4,1.25-.04,1.11-.72,1.88-1.3,2.58,0,0-.79.94-2.7,3.63-.75,1.06-1.25,2.04-2.26,3.98-.54,1.05-.62,1.27-2.25,4.8-1.58,3.44-1.82,3.91-2.17,5.05-.07.24-.59,2.01-.62,4.32-.01,1.17.11,1.83.49,2.44.57.9,1.45,1.25,1.69,1.35.74.29,1.98.28,3-.02,4.05-1.2,8.45-5.94,8.45-5.94,1.12-1.21,2-2.33,3.08-3.71,1-1.28,1.93-2.26,2.79-3.8.83-1.49,1.76-3.03,2.79-4.61.7-1.08,1.41-2.1,2.11-3.07.57-1.46,1.32-2.42,1.85-2.99.94-1,1.41-1.01,1.6-1,.79.07,1.25,1,1.32,1.15-.18.67-.42,1.41-.75,2.2-.49,1.17-1.06,2.14-1.59,2.91-.49.84-1.12,2.03-1.72,3.52-.14.34-.45,1.15-1.18,3.59-.8,2.71-1.2,4.06-1.42,5.52-.48,3.21.02,4.28.18,4.58.16.3.79,1.51,2.09,1.97,1.02.36,2.02.09,3.48-.54,4.94-2.14,7.66-5.1,7.66-5.1,1.22-1.31,4.2-4.61,6.41-8.5,1.34-2.35,2.6-5.27,2.91-6.02.31-.75.61-1.52.61-1.52.34-.88.54-1.44.73-1.97.97-2.67,1.04-2.38,1.47-3.76.52-1.69.5-2.41,1.11-2.67.46-.2,1.1-.03,1.42.35.41.48.2,1.21-.12,2.38-.24.87-.55,1.58-.85,2.18-.5.99-.83,1.44-1.37,2.33-1.05,1.71-1.57,2.56-1.78,3.38-.13.48-.65,2.49.45,4.36.69,1.17,1.73,1.73,2.14,1.93.77.38,1.44.45,2.07.53,1.23.14,2.18-.03,2.9-.16.3-.05,1.33-.25,2.59-.79.69-.29,1.26-.6,1.67-.85"/>
    <path class="cls-3" d="M291.55,249.66c-1.49,1.45-3.68,3.42-6.25,5.12-.97.64-1.97,1.24-3.36,1.56-1.3.3-2.38.24-3.01.2-1.53-.1-2.48-.12-3.45-.75-.86-.56-1.41-1.36-1.67-1.74-.34-.5-.59-.99-.85-1.52-.3-.59-.52-1.1-.66-1.47"/>
    <path class="cls-2" d="M336.89,238.25c-3.17,5.29-4.66,7.5-6.58,11.82-.32.72-.83,2-1.86,4.56-3.52,8.81-5.29,13.21-5.74,14.69-1.74,5.65-2.19,9.46-3.88,9.62-.62.06-1.47-.37-1.86-1.01-.43-.72-.19-1.56.14-2.6,1.63-5.24,3.26-8.61,3.67-9.43.04-.09.11-.21.11-.23,1.12-2.32,2-4.15,2.84-5.95,1.02-2.18,1.79-3.83,1.88-4.02,2.7-5.8,5.84-11.55,7.18-14.01,1.78-3.27,3.3-5.91,5.48-9.69,1.32-2.3,1.26-2.15,2.48-4.28,5.03-8.78,7.95-14.45,9.08-14.05.1.04.18.12.2.14.69.75-.75,3.06-1.32,3.99,0,0,0,0,0,0-1.66,2.94-3.08,5.44-4.18,7.35-1.87,3.26-3.4,5.87-4.86,8.38-.53.91-1.26,2.21-2.78,4.74Z"/>
    <path class="cls-3" d="M311.91,244.59c-.57-.42-1.3-1.06-1.95-2-.72-1.05-1.01-2-1.08-2.25-.21-.72-.29-1.45-.16-3.46.14-2.08.2-3.12.5-4.41.1-.44.57-2.41,1.82-4.77,2-3.77,4.75-6.3,6.71-7.95,5.18-4.35,10.26-6.75,13.21-7.98,1.45-.61,2.55-1.01,2.96-1.14,1.83-.6,3.39-.92,5.06-1.19,4.11-.68,7.54-.89,8.57-.95,5.25-.3,9.17-.06,10.04,0,5.03.33,7.74,1,8.68,1.25,1.62.43,2.79.86,3.62,1.17,2.13.79,3.22,1.21,4.41,2.1,1.56,1.16,2.39,2.42,2.55,2.67,1.11,1.72,1.43,3.39,1.53,4.32.23,1.5.4,3.79-.09,6.49-.14.77-.75,3.72-3.19,7.71-2.98,4.88-6.53,7.75-8.64,9.42-4.41,3.5-8.38,5.24-10.95,6.35-2.75,1.18-7.92,3.14-14.52,3.97-.61.08-3.3.4-6.88.43-3.34.03-5.85-.21-7.69-.39-2.46-.24-5.56-.65-9.11-1.39"/>
    <path class="cls-1" d="M399.84,243.32c-.36-1.56-1.72-2.57-1.86-2.66-.52-.37-1.22-.7-2.58-.89-2.01-.28-3.74,0-5.51.4-2.45.56-4.3.98-6.61,2.1-3.32,1.59-5.39,3.54-7.26,5.32-1.94,1.85-4.98,4.81-7.29,9.62-1.34,2.79-2.69,5.69-2.05,9.23.18,1.02.7,3.86,2.8,4.89,1.29.63,2.73.46,4.1.28,1.61-.21,2.79-.74,3.47-1.05,1.3-.59,2.24-1.26,3.05-1.89.92-.71,3.3-2.62,7.19-6.98.82-.92,1.58-1.8,3.08-3.56,1.4-1.64,2.13-2.44,2.8-3.33,2.05-2.74,3.08-4.1,3.9-5.3,2.75-4.04,3-5.14,2.76-6.17Z"/>
    <path class="cls-3" d="M415.5,254.8c-.36.53-.9,1.32-1.6,2.24-2.02,2.7-3.81,4.57-5.38,6.19-1.22,1.26-2.08,2.15-3.39,3.27-1.41,1.21-2.17,1.86-3.39,2.48-1.28.66-3.05,1.57-5.19,1.17-.62-.12-2.09-.39-3.02-1.61-1.03-1.35-.77-3.06-.49-4.96.25-1.68.73-2.89,1.12-3.85.94-2.31,2.06-3.97,3.24-5.7.75-1.09,1.13-1.57,2.8-3.98.99-1.44,1.54-2.27,1.77-3.51.22-1.17.05-2.19-.12-2.84"/>
    <path class="cls-3" d="M445.63,240.68c-1.37-.62-3.53-1.41-6.27-1.66-.84-.08-3.24-.24-6.22.45-4.11.95-6.85,2.93-8.53,4.17-3.76,2.78-5.91,5.86-7.57,8.25-1.5,2.16-2.67,4.28-3.14,5.15-.81,1.52-1.48,2.94-2.45,5.02-.44.93-.66,1.4-.76,1.69-.4,1.11-1.15,3.21-.44,5.56.15.5.48,1.55,1.41,2.54.17.18,1.09,1.13,2.62,1.6,2.76.85,5.51-.46,7.26-1.3,1.72-.82,2.85-1.69,4.16-2.73,2.36-1.88,3.91-3.55,5.34-5.1,3.85-4.18,5.89-6.24,7.77-8.58,1.79-2.21,2.67-3.32,3.25-4.35,1.43-2.56,2.35-5.51,3.17-5.39.16.02.3.16.31.17.42.42.12,1.36-.03,1.81-1.88,5.38-3.12,7.33-3.12,7.33-.19.3-.17.27-3.96,10.12-.68,1.77-1.44,4.1-3.33,8.63-3.16,7.58-6.26,12.79-7.21,14.37-2.44,4.02-3.99,6.55-6.91,9.43-3.6,3.57-6.44,4.85-8.02,5.43-.74.27-2.63.9-5.12,1.05-1.28.08-2.31.13-3.58-.25-.76-.22-2.62-.77-3.76-2.47-1.42-2.09-.82-4.57-.56-5.67.55-2.3,1.81-3.77,2.9-4.99,2.22-2.52,4.57-3.79,8.45-5.86,1.38-.73.68-.29,5.43-2.59,3.5-1.69,4.49-2.23,7.21-3.51,3.2-1.51,3.12-1.38,5.24-2.4,4.51-2.17,7.83-4.23,10.03-5.6.68-.42,3.58-2.24,7.44-5.02,3.23-2.33,7.36-5.49,11.97-9.57"/>
    <path class="cls-3" d="M494.48,253.19c-.51.92-1.27,2.17-2.33,3.54-.85,1.1-1.69,2-3.08,3.35-2.96,2.87-4.91,4.76-7.99,6.75-1.22.79-2.67,1.72-4.8,2.59-2.37.97-4.34,1.37-5.29,1.53-2.13.36-3.77.65-5.85.19-1.33-.29-3.14-.69-4.44-2.25-1.18-1.42-1.3-3.06-1.41-4.5-.14-1.83.2-3.24.64-5.03.2-.83.52-2.11,1.16-3.58.09-.21.2-.45.38-.79,1.01-2.03,2.17-3.75,3.11-5.15,1.62-2.39,2.43-3.58,2.64-3.85,1.4-1.7,2.68-2.78,3.67-3.62,1.61-1.35,2.62-2.19,4.24-2.87,1.53-.64,2.63-.74,2.9-.76,1.16-.09,3.03-.24,3.93.89.79.99.46,2.42.19,3.56-.24,1.03-.75,1.9-1.76,3.6-1.03,1.73-1.61,2.71-2.67,3.91-.84.96-1.63,1.65-2.27,2.21-.59.52-1.27,1.12-2.21,1.78-.32.23-1.81,1.25-4.02,2.18-.99.42-2.28.88-3.84,1.23"/>
    <path class="cls-1" d="M151.91,208.91c.69.5,1.75,1.4,2.46,2.84.92,1.87.75,3.67.46,6.56-.13,1.31-.31,2.99-.93,5.23-1.09,3.99-2.65,6.56-4.46,10.39-.44.93-.88,1.81-1.01,2.07-1.28,2.62-2.18,4.35-2.62,5.22-1.83,3.59-1.97,4.48-3.44,7.51-.94,1.94-2.37,4.65-4.43,7.8"/>
    <path class="cls-3" d="M236.4,241.81c-1.64,2.31-3.01,4.27-4.03,5.75-2.63,3.81-3.05,4.51-3.51,5.52-.56,1.23-.99,2.89-1.87,6.19-.67,2.54-.95,3.85-.82,5,.26,2.37,1.59,4.11,2.51,5.1"/>
    <path class="cls-3" d="M192.62,257.62c1.16-2.46,2.33-4.43,3.26-5.86.39-.6,2.01-2.98,4.63-5.77,1.51-1.61,3.58-3.59,6.26-5.6"/>
    <path class="cls-3" d="M249.83,268.2c-.77-2.31-1.01-4.28-1.08-5.64-.11-2.03-.21-3.74.63-5.69.75-1.76,1.92-2.91,2.68-3.53"/>
    <path class="cls-3" d="M267.66,258.31c.56-.75,1.35-1.82,2.26-3.12,1.1-1.57,1.65-2.36,2.09-3.1,1.47-2.5,2.13-4.83,2.52-6.54.07-.3.55-2.42,1.52-5.02.41-1.11.87-2.19,1.48-2.19.34,0,.62.33.82.65"/>
    <path class="cls-1" d="M394.77,252.61c-.98,1.12-2.54,2.89-4.43,5.11-1.84,2.16-2.91,3.38-5.04,5.81-1.17,1.34-2.99,3.39-5.64,5.17-.48.32-.77.49-1,.61-1.18.64-3.51,1.83-6.07,1.14-.56-.15-1.72-.48-2.56-1.5-1.16-1.42-.96-3.23-.75-5.13.23-2.09.88-3.56,1.68-5.41.88-2.05,1.82-3.62,2.47-4.63,1.53-2.38,2.99-3.96,4.17-5.21,1.92-2.05,3.53-3.39,3.99-3.76,1.66-1.36,2.78-2.28,4.48-3.15,3.5-1.81,6.63-1.98,7.7-2,1.61-.04,3.39-.05,5.21,1,.72.42,1.91,1.11,2.43,2.56.64,1.78-.2,3.43-.38,3.76"/>
    <path class="cls-3" d="M391.1,258.82c-1.03,1.96-1.37,3.7-1.5,4.81-.21,1.8-.47,4.07.95,5.99.95,1.29,2.18,1.82,2.56,1.97,1.24.51,3.5.75,5.71-.25.38-.17,1.04-.63,2.37-1.55.8-.56,1.54-1.07,2.4-1.79.5-.42.86-.75,2.21-2.07.71-.69,1.64-1.61,2.73-2.69"/>
    <path class="cls-3" d="M426.89,244.02c-3.19,2.47-5.48,4.87-7,6.65-.7.81-3.74,4.51-6.29,10.21-1.64,3.68-2.45,5.55-1.69,7.3,1.38,3.18,6.42,3.55,7.08,3.59"/>
    <path class="cls-3" d="M487.37,261.7c-2.94,3.22-5.77,5.43-7.9,6.89-3.98,2.73-6.41,3.44-7.39,3.69-2.24.58-4.04.59-4.66.58-.79-.01-2.42-.04-4-.54-4.03-1.29-6.02-5.19-6.25-5.66-2.7-5.46.16-11.25.7-12.34.48-.98,1.33-2.21,3.03-4.67,1.46-2.13,2.31-3.34,3.69-4.82,1.84-1.98,3.48-3.2,3.89-3.49,1.33-.97,3.28-2.36,6.15-3.25,1.19-.37,2.71-.82,4.72-.68,1.33.09,2.85.2,4.1,1.37,1.24,1.17,1.45,2.68,1.49,3.03.06.49.11,1.67-1.15,3.98-.45.82-1.56,2.69-4.19,5.09-2.33,2.13-4.46,3.41-5.31,3.89-.73.41-3.92,2.19-8.64,3.31-2.44.57-4.54.8-6.06.88"/>
    <path class="cls-3" d="M471.88,240.43c-1.78,1.36-4.24,3.43-6.81,6.3-1.17,1.3-2.75,3.08-3.99,5.14-1.17,1.97-3.38,6.46-2.89,13.69"/>
    <path class="cls-3" d="M331.05,254.34c5.03-.25,11.22-1.22,17.81-3.82,5.53-2.18,9.45-4.77,11.34-6.12,2.76-1.95,5.74-4.1,8.69-7.89,2.8-3.6,4.25-6.97,4.96-8.95.9-2.48,1.56-4.28,1.5-6.82-.03-1.08-.14-4.18-2.21-7.27-.72-1.08-1.67-2-1.67-2s-.83-.82-1.81-1.49c-2.76-1.91-8.23-2.58-8.23-2.58-3.47-.47-6.46-.58-8.8-.56-3.55.03-6.25.36-7.88.56-1.91.24-4.09.58-6.47,1.09-2.41.52-5.11,1.11-8.22,2.26-5.87,2.16-9.86,5.11-12.46,7.05-2.37,1.77-4.11,3.09-6.04,5.39-1.69,2.01-3.59,4.28-4.41,7.83-.34,1.48-1.07,4.82.54,8.48,1.22,2.77,3.2,4.38,4.21,5.09"/>
    <path class="cls-3" d="M369.14,209.65c1.27.48,6.38,2.6,7.87,7.32.52,1.65.5,3.3.48,4.14-.05,2.72-.78,4.72-1.65,7.13-.48,1.32-1.08,2.97-2.25,4.95-1.49,2.52-2.95,4.2-3.83,5.18-3.76,4.17-8.18,6.99-10.85,8.5"/>
    <path class="cls-1" d="M177.31,214.05c4.9-3.72,9.17-5.83,11.41-6.31,1.52-.33,3.38-.19,3.94-.13.88.1,1.4.26,1.89.6.65.45.97,1.04,1.1,1.29.8,1.45.5,3.03.32,3.94-.67,3.39-2.28,7.04-4.32,11.06-.77,1.52-2.55,4.88-3.91,6.93-.84,1.28-1.52,2.2-2.75,4.21-.74,1.21-.79,1.36-2.24,3.84-1.37,2.33-1.56,2.6-2.49,4.19-.82,1.41-1.15,2.03-2.37,4.24-3.64,6.56-3.79,6.62-4.51,8.27-.26.6-1.13,2.65-1.91,5.44-.95,3.41-1.12,5.56-1.16,6.35-.17,2.89.25,4.2.52,4.89.12.3.53,1.3,1.38,2.36,1.86,2.32,4.38,3.16,5.56,3.46"/>
    <path class="cls-3" d="M255.47,243.94c-1.55,2.71-4.59,8.21-7.15,14.12-.42.97-1.42,3.34-1.28,6.4.07,1.5.17,3.37,1.54,4.65,1.73,1.61,4.41,1.11,5.18.97.52-.09,1.84-.39,5.08-2.81,1.27-.95,2.98-2.33,4.85-4.19"/>
    <path class="cls-3" d="M399.14,247.74c-.59.74-1.37,1.77-2.21,3.04-1.96,2.98-3.09,5.52-3.55,6.62-1.71,4.09-2.56,6.13-2.13,8.64.39,2.26,1.6,3.9,2.44,4.85"/>
    <path class="cls-3" d="M439.36,239.02c-1.44.11-3.44.41-5.69,1.26-.9.34-3.02,1.21-5.31,2.96-1.5,1.15-2.44,2.21-4.33,4.33-.8.9-1.93,2.18-3.21,3.89-2.99,4.01-4.73,7.65-5.8,10.48-1.4,3.72-1.4,5.31-.71,6.53.14.26.69,1.22,1.78,1.78,1.7.87,4.05.41,7.72-1.78,1.58-.95,4-2.54,10.15-9.07,4.18-4.44,5.42-5.66,6.52-6.96.62-.73.95-1.15,1.16-1.44.98-1.33,1.16-1.9,1.86-2.82.75-.99,1.87-2.14,2.05-2.01.28.2-2.2,3.75-5.92,10.44-1.42,2.55-1.79,3.36-2.12,4.14-.75,1.81-1.24,3.59-2.22,7.15-.59,2.13-.58,2.23-.87,3.08-.65,1.89-1.4,3.37-2.09,4.75-.5,1.01-.6,1.15-1.73,3.33-1.37,2.64-1.56,3.24-2.65,5.43-1.14,2.28-1.93,3.86-3.02,5.49-1.64,2.45-3.22,3.87-6.37,6.71-4.41,3.97-6.44,4.84-7.38,5.19-.95.36-2.36.79-4.13.8-1.6.01-3.55.03-4.75-1.29-1.24-1.37-.98-3.39-.86-4.25.18-1.38.78-3.1,3.02-5.55,1.15-1.25,3.18-3.2,8.94-6.29.18-.1.31-.17.45-.24,1.01-.51,1.78-.86,1.91-.92,1.21-.54,3.07-1.84,5.35-3.16,1.3-.75,3.31-1.92,6.04-3.08,1.42-.6,1.73-.65,2.53-1.11,1.96-1.13,3.2-2.66,3.96-3.81"/>
  </g>
</svg>